<?xml version="1.0" encoding="UTF-8" standalone="no"?>
<!-- Created with Inkscape (http://www.inkscape.org/) -->

<svg
   width="512"
   height="512"
   viewBox="0 0 135.46667 135.46666"
   version="1.1"
   id="svg5"
   xml:space="preserve"
   inkscape:version="1.3 (0e150ed6c4, 2023-07-21)"
   sodipodi:docname="albums.svg"
   inkscape:export-filename="play-icon.png"
   inkscape:export-xdpi="6"
   inkscape:export-ydpi="6"
   xmlns:inkscape="http://www.inkscape.org/namespaces/inkscape"
   xmlns:sodipodi="http://sodipodi.sourceforge.net/DTD/sodipodi-0.dtd"
   xmlns="http://www.w3.org/2000/svg"
   xmlns:svg="http://www.w3.org/2000/svg"><sodipodi:namedview
     id="namedview7"
     pagecolor="#ffffff"
     bordercolor="#000000"
     borderopacity="0.25"
     inkscape:showpageshadow="2"
     inkscape:pageopacity="0.0"
     inkscape:pagecheckerboard="0"
     inkscape:deskcolor="#d1d1d1"
     inkscape:document-units="px"
     showgrid="false"
     showguides="true"
     inkscape:lockguides="false"
     inkscape:zoom="1"
     inkscape:cx="246.5"
     inkscape:cy="249"
     inkscape:window-width="1920"
     inkscape:window-height="1056"
     inkscape:window-x="1920"
     inkscape:window-y="0"
     inkscape:window-maximized="1"
     inkscape:current-layer="svg5"><sodipodi:guide
       position="114.3,67.733332"
       orientation="-1,0"
       id="guide20217"
       inkscape:locked="false"
       inkscape:label="right-limit"
       inkscape:color="rgb(242,87,87)" /><sodipodi:guide
       position="67.733332,114.3"
       orientation="0,1"
       id="guide20225"
       inkscape:locked="false"
       inkscape:label="top-limit"
       inkscape:color="rgb(242,87,87)" /><sodipodi:guide
       position="67.733332,21.166666"
       orientation="0,1"
       id="guide20227"
       inkscape:locked="false"
       inkscape:label="bottom-limit"
       inkscape:color="rgb(242,87,87)" /><sodipodi:guide
       position="21.166666,67.733332"
       orientation="-1,0"
       id="guide1"
       inkscape:locked="false"
       inkscape:label="left-limit"
       inkscape:color="rgb(242,87,87)" /><sodipodi:guide
       position="67.733332,67.733332"
       orientation="-1,0"
       id="guide2"
       inkscape:locked="false"
       inkscape:label="center-vertical"
       inkscape:color="rgb(89,168,230)" /><sodipodi:guide
       position="67.733332,67.733332"
       orientation="0,1"
       id="guide3"
       inkscape:locked="false"
       inkscape:label="center-horizontal"
       inkscape:color="rgb(89,168,230)" /><sodipodi:guide
       position="108.47917,108.47917"
       orientation="0.70710678,0.70710678"
       id="guide4"
       inkscape:locked="false"
       inkscape:label=""
       inkscape:color="rgb(0,134,229)" /><sodipodi:guide
       position="26.9875,26.9875"
       orientation="0.70710678,0.70710678"
       id="guide5"
       inkscape:label=""
       inkscape:locked="false"
       inkscape:color="rgb(0,134,229)" /><sodipodi:guide
       position="26.9875,108.47917"
       orientation="0.70710678,-0.70710678"
       id="guide6"
       inkscape:label=""
       inkscape:locked="false"
       inkscape:color="rgb(0,134,229)" /><sodipodi:guide
       position="108.47917,26.9875"
       orientation="0.70710678,-0.70710678"
       id="guide7"
       inkscape:label=""
       inkscape:locked="false"
       inkscape:color="rgb(0,134,229)" /></sodipodi:namedview><defs
     id="defs2"><linearGradient
       id="linearGradient30939"
       inkscape:swatch="solid"><stop
         style="stop-color:#8cd2f2;stop-opacity:1;"
         offset="0"
         id="stop30937" /></linearGradient></defs><path
     d="m 76.019364,82.144853 -6.105361,-6.054119 c -2.945989,-2.921832 -4.419166,-4.382567 -6.109386,-4.91657 -1.48672,-0.469587 -3.084706,-0.452385 -4.560885,0.04941 -1.678507,0.570604 -3.119622,2.062814 -6.00178,5.047234 L 38.614159,90.71893 m 37.405205,-8.574077 1.249547,-1.238933 c 2.949649,-2.925126 4.424291,-4.387691 6.116706,-4.921694 1.488184,-0.469587 3.087269,-0.450921 4.564474,0.0527 1.679236,0.572434 3.120202,2.06867 6.001781,5.060776 l 3.062006,3.081777 M 76.019364,82.144851 90.70026,96.854668 m 0,0 c -1.308107,0.159214 -3.003816,0.159214 -5.398597,0.159214 H 50.165006 c -4.099679,0 -6.1495,0 -7.715351,-0.797893 -1.377394,-0.70164 -2.497228,-1.82162 -3.199009,-3.198906 -0.329517,-0.646733 -0.522915,-1.37582 -0.636487,-2.298153 m 52.086101,6.135738 c 0.930753,-0.113093 1.665699,-0.30672 2.316826,-0.638679 1.377279,-0.70164 2.497266,-1.82162 3.198899,-3.198906 0.797893,-1.56578 0.797893,-3.615779 0.797893,-7.715424 V 84.179485 M 38.614159,90.71893 C 38.452786,89.408624 38.452786,87.708156 38.452786,85.301662 V 50.165005 c 0,-4.099644 0,-6.149501 0.79786,-7.715351 0.701781,-1.377394 1.821615,-2.497229 3.199009,-3.19901 1.565851,-0.797858 3.615672,-0.797858 7.715351,-0.797858 h 35.136657 c 4.099637,0 6.149643,0 7.715423,0.797858 1.377279,0.701781 2.497266,1.821616 3.198899,3.19901 0.797893,1.56585 0.797893,3.615707 0.797893,7.715351 v 34.01448 M 86.033676,56.752726 c 0,4.042947 -3.277225,7.320173 -7.320136,7.320173 -4.042912,0 -7.320137,-3.277226 -7.320137,-7.320173 0,-4.042802 3.277225,-7.320138 7.320137,-7.320138 4.042911,0 7.320136,3.277336 7.320136,7.320138 z"
     stroke="#000000"
     stroke-width="2"
     stroke-linecap="round"
     stroke-linejoin="round"
     id="path1"
     style="fill:none;stroke:#252323;stroke-width:4.23333328;stroke-dasharray:none;stroke-opacity:1" /></svg>
