<?xml version="1.0" encoding="UTF-8" standalone="no"?>
<!-- Created with Inkscape (http://www.inkscape.org/) -->

<svg
        xmlns:inkscape="http://www.inkscape.org/namespaces/inkscape"
        xmlns:sodipodi="http://sodipodi.sourceforge.net/DTD/sodipodi-0.dtd"
        width="512"
        height="512"
        viewBox="0 0 135.46667 135.46666"
        version="1.1"
        id="svg5"
        xml:space="preserve"
        inkscape:version="1.3 (0e150ed6c4, 2023-07-21)"
        sodipodi:docname="tracks.svg"
        inkscape:export-filename="play-icon.png"
        inkscape:export-xdpi="6"
        inkscape:export-ydpi="6"
        xmlns="http://www.w3.org/2000/svg"
><sodipodi:namedview
     id="namedview7"
     pagecolor="#ffffff"
     bordercolor="#000000"
     borderopacity="0.25"
     inkscape:showpageshadow="2"
     inkscape:pageopacity="0.0"
     inkscape:pagecheckerboard="0"
     inkscape:deskcolor="#d1d1d1"
     inkscape:document-units="px"
     showgrid="false"
     showguides="true"
     inkscape:lockguides="false"
     inkscape:zoom="1"
     inkscape:cx="247.5"
     inkscape:cy="329"
     inkscape:window-width="1920"
     inkscape:window-height="1056"
     inkscape:window-x="1920"
     inkscape:window-y="0"
     inkscape:window-maximized="1"
     inkscape:current-layer="svg5"><sodipodi:guide
       position="114.3,67.733332"
       orientation="-1,0"
       id="guide20217"
       inkscape:locked="false"
       inkscape:label="right-limit"
       inkscape:color="rgb(242,87,87)" /><sodipodi:guide
        position="67.733332,114.3"
        orientation="0,1"
        id="guide20225"
        inkscape:locked="false"
        inkscape:label="top-limit"
        inkscape:color="rgb(242,87,87)"/><sodipodi:guide
        position="67.733332,21.166666"
        orientation="0,1"
        id="guide20227"
        inkscape:locked="false"
        inkscape:label="bottom-limit"
        inkscape:color="rgb(242,87,87)"/><sodipodi:guide
        position="21.166666,67.733332"
        orientation="-1,0"
        id="guide1"
        inkscape:locked="false"
        inkscape:label="left-limit"
        inkscape:color="rgb(242,87,87)"/><sodipodi:guide
        position="67.733332,67.733332"
        orientation="-1,0"
        id="guide2"
        inkscape:locked="false"
        inkscape:label="center-vertical"
        inkscape:color="rgb(89,168,230)"/><sodipodi:guide
        position="67.733332,67.733332"
        orientation="0,1"
        id="guide3"
        inkscape:locked="false"
        inkscape:label="center-horizontal"
        inkscape:color="rgb(89,168,230)"/><sodipodi:guide
        position="108.47917,108.47917"
        orientation="0.70710678,0.70710678"
        id="guide4"
        inkscape:locked="false"
        inkscape:label=""
        inkscape:color="rgb(0,134,229)"/><sodipodi:guide
        position="26.9875,26.9875"
        orientation="0.70710678,0.70710678"
        id="guide5"
        inkscape:label=""
        inkscape:locked="false"
        inkscape:color="rgb(0,134,229)"/><sodipodi:guide
        position="26.9875,108.47917"
        orientation="0.70710678,-0.70710678"
        id="guide6"
        inkscape:label=""
        inkscape:locked="false"
        inkscape:color="rgb(0,134,229)"/><sodipodi:guide
        position="108.47917,26.9875"
        orientation="0.70710678,-0.70710678"
        id="guide7"
        inkscape:label=""
        inkscape:locked="false"
        inkscape:color="rgb(0,134,229)"/></sodipodi:namedview>
    <defs
            id="defs2"><linearGradient
       id="linearGradient30939"
       inkscape:swatch="solid"><stop
         style="stop-color:#8cd2f2;stop-opacity:1;"
         offset="0"
         id="stop30937" /></linearGradient></defs>
    <g
            style="fill:none;stroke:none;stroke-width:1.44578;stroke-dasharray:none"
            id="g1"
            transform="matrix(3.6600682,0,0,3.6600682,23.812514,23.812514)"><path
       d="M 14,5.6 C 14,5.03995 14,4.75992 14.109,4.54601 14.2049,4.35785 14.3578,4.20487 14.546,4.10899 14.7599,4 15.0399,4 15.6,4 h 2.8 c 0.5601,0 0.8401,0 1.054,0.10899 0.1882,0.09588 0.3411,0.24886 0.437,0.43702 C 20,4.75992 20,5.03995 20,5.6 V 8.4 C 20,8.96005 20,9.24008 19.891,9.45399 19.7951,9.64215 19.6422,9.79513 19.454,9.89101 19.2401,10 18.9601,10 18.4,10 H 15.6 C 15.0399,10 14.7599,10 14.546,9.89101 14.3578,9.79513 14.2049,9.64215 14.109,9.45399 14,9.24008 14,8.96005 14,8.4 Z"
       stroke="#000000"
       stroke-width="2"
       stroke-linecap="round"
       stroke-linejoin="round"
       id="path1-3"
       style="stroke:#252323;stroke-width:1.15662689;stroke-dasharray:none;stroke-opacity:1" />
        <path
                d="M 4,5.6 C 4,5.03995 4,4.75992 4.10899,4.54601 4.20487,4.35785 4.35785,4.20487 4.54601,4.10899 4.75992,4 5.03995,4 5.6,4 H 8.4 C 8.96005,4 9.24008,4 9.45399,4.10899 9.64215,4.20487 9.79513,4.35785 9.89101,4.54601 10,4.75992 10,5.03995 10,5.6 V 8.4 C 10,8.96005 10,9.24008 9.89101,9.45399 9.79513,9.64215 9.64215,9.79513 9.45399,9.89101 9.24008,10 8.96005,10 8.4,10 H 5.6 C 5.03995,10 4.75992,10 4.54601,9.89101 4.35785,9.79513 4.20487,9.64215 4.10899,9.45399 4,9.24008 4,8.96005 4,8.4 Z"
                stroke="#000000"
                stroke-width="2"
                stroke-linecap="round"
                stroke-linejoin="round"
                id="path2"
                style="stroke:#252323;stroke-width:1.15662689;stroke-dasharray:none;stroke-opacity:1"/>
        <path
                d="M 4,15.6 C 4,15.0399 4,14.7599 4.10899,14.546 4.20487,14.3578 4.35785,14.2049 4.54601,14.109 4.75992,14 5.03995,14 5.6,14 h 2.8 c 0.56005,0 0.84008,0 1.05399,0.109 0.18816,0.0959 0.34114,0.2488 0.43702,0.437 C 10,14.7599 10,15.0399 10,15.6 v 2.8 c 0,0.5601 0,0.8401 -0.10899,1.054 C 9.79513,19.6422 9.64215,19.7951 9.45399,19.891 9.24008,20 8.96005,20 8.4,20 H 5.6 C 5.03995,20 4.75992,20 4.54601,19.891 4.35785,19.7951 4.20487,19.6422 4.10899,19.454 4,19.2401 4,18.9601 4,18.4 Z"
                stroke="#000000"
                stroke-width="2"
                stroke-linecap="round"
                stroke-linejoin="round"
                id="path3"
                style="stroke:#252323;stroke-width:1.15662689;stroke-dasharray:none;stroke-opacity:1"/>
        <path
                d="m 14,15.6 c 0,-0.5601 0,-0.8401 0.109,-1.054 0.0959,-0.1882 0.2488,-0.3411 0.437,-0.437 C 14.7599,14 15.0399,14 15.6,14 h 2.8 c 0.5601,0 0.8401,0 1.054,0.109 0.1882,0.0959 0.3411,0.2488 0.437,0.437 C 20,14.7599 20,15.0399 20,15.6 v 2.8 c 0,0.5601 0,0.8401 -0.109,1.054 -0.0959,0.1882 -0.2488,0.3411 -0.437,0.437 C 19.2401,20 18.9601,20 18.4,20 H 15.6 C 15.0399,20 14.7599,20 14.546,19.891 14.3578,19.7951 14.2049,19.6422 14.109,19.454 14,19.2401 14,18.9601 14,18.4 Z"
                stroke="#000000"
                stroke-width="2"
                stroke-linecap="round"
                stroke-linejoin="round"
                id="path4"
                style="stroke:#252323;stroke-width:1.15662689;stroke-dasharray:none;stroke-opacity:1"/></g></svg>
