<?xml version="1.0" encoding="UTF-8" standalone="no"?>
<!-- Uploaded to: SVG Repo, www.svgrepo.com, Generator: SVG Repo Mixer Tools -->

<svg
        xmlns:inkscape="http://www.inkscape.org/namespaces/inkscape"
        xmlns:sodipodi="http://sodipodi.sourceforge.net/DTD/sodipodi-0.dtd"
        width="800px"
        height="800px"
        viewBox="0 0 24 24"
        fill="none"
        version="1.1"
        id="svg1"
        sodipodi:docname="join.svg"
        inkscape:version="1.3.2 (091e20ef0f, 2023-11-25, custom)"
        xmlns="http://www.w3.org/2000/svg"
>
    <defs
            id="defs1"/>
    <sodipodi:namedview
            id="namedview1"
            pagecolor="#ffffff"
            bordercolor="#000000"
            borderopacity="0.25"
            inkscape:showpageshadow="2"
            inkscape:pageopacity="0.0"
            inkscape:pagecheckerboard="0"
            inkscape:deskcolor="#d1d1d1"
            inkscape:zoom="0.83625"
            inkscape:cx="400"
            inkscape:cy="399.40209"
            inkscape:window-width="1920"
            inkscape:window-height="1056"
            inkscape:window-x="1920"
            inkscape:window-y="0"
            inkscape:window-maximized="1"
            inkscape:current-layer="svg1"/>
    <path
            d="m 1.480287,22.8 12.857427,-1.17e-4 V 5.2544515 c 0,-1.5943677 0,-2.3915515 -0.3288,-2.9441053 C 13.720557,1.8258667 13.266807,1.4618963 12.731354,1.2855275 12.120626,1.0843789 11.342401,1.2573113 9.785951,1.603176 L 6.7469462,2.2785182 C 5.7018478,2.5107584 5.1792986,2.6268844 4.7892393,2.9078893 4.4451863,3.1557571 4.1750283,3.4925399 4.0077065,3.8821666 3.818001,4.3239011 3.818001,4.8591908 3.818001,5.9297937 V 22.8 m 10.5127,-18.7017468 h 2.110955 c 1.309237,0 1.963914,0 2.463951,0.2547875 0.439841,0.2241283 0.797511,0.5817518 1.021581,1.0216277 0.254811,0.5000604 0.254811,1.1546788 0.254811,2.4639272 V 22.8 h 2.337714 M 10.831143,12.280287 h 0.01169"
            stroke="#000000"
            stroke-width="2"
            stroke-linecap="round"
            stroke-linejoin="round"
            id="path1"
            style="stroke-width:2.4;stroke-dasharray:none"/>
</svg>
