<?xml version="1.0" encoding="UTF-8" standalone="no"?>
<!-- Uploaded to: SVG Repo, www.svgrepo.com, Generator: SVG Repo Mixer Tools -->

<svg
        xmlns:inkscape="http://www.inkscape.org/namespaces/inkscape"
        xmlns:sodipodi="http://sodipodi.sourceforge.net/DTD/sodipodi-0.dtd"
        width="800px"
        height="800px"
        viewBox="0 0 24 24"
        fill="none"
        version="1.1"
        id="svg2"
        sodipodi:docname="settings.svg"
        inkscape:version="1.3.2 (091e20ef0f, 2023-11-25, custom)"
        xmlns="http://www.w3.org/2000/svg"
>
    <defs
            id="defs2"/>
    <sodipodi:namedview
            id="namedview2"
            pagecolor="#ffffff"
            bordercolor="#000000"
            borderopacity="0.25"
            inkscape:showpageshadow="2"
            inkscape:pageopacity="0.0"
            inkscape:pagecheckerboard="0"
            inkscape:deskcolor="#d1d1d1"
            inkscape:zoom="0.83625"
            inkscape:cx="399.40209"
            inkscape:cy="400.59791"
            inkscape:window-width="1920"
            inkscape:window-height="1056"
            inkscape:window-x="1920"
            inkscape:window-y="0"
            inkscape:window-maximized="1"
            inkscape:current-layer="svg2"/>
    <g
            id="g2"
            transform="matrix(1.2,0,0,1.2,-2.4,-2.4)"
            style="stroke-width:0.833325;stroke-dasharray:none">
        <path
                d="m 15,12 c 0,1.6569 -1.3431,3 -3,3 -1.6569,0 -3,-1.3431 -3,-3 0,-1.6569 1.3431,-3 3,-3 1.6569,0 3,1.3431 3,3 z"
                stroke="#000000"
                stroke-width="2"
                stroke-linecap="round"
                stroke-linejoin="round"
                id="path1"
                style="stroke-width:2;stroke-dasharray:none"/>
        <path
                d="M 12.9046,3.06005 C 12.6988,3 12.4659,3 12,3 11.5341,3 11.3012,3 11.0954,3.06005 10.7942,3.14794 10.5281,3.32808 10.3346,3.57511 10.2024,3.74388 10.1159,3.96016 9.94291,4.39272 9.69419,5.01452 9.00393,5.33471 8.36857,5.123 L 7.79779,4.93281 C 7.3929,4.79785 7.19045,4.73036 6.99196,4.7188 6.70039,4.70181 6.4102,4.77032 6.15701,4.9159 5.98465,5.01501 5.83376,5.16591 5.53197,5.4677 5.21122,5.78845 5.05084,5.94882 4.94896,6.13189 4.79927,6.40084 4.73595,6.70934 4.76759,7.01551 4.78912,7.2239 4.87335,7.43449 5.04182,7.85566 5.30565,8.51523 5.05184,9.26878 4.44272,9.63433 L 4.16521,9.80087 C 3.74031,10.0558 3.52786,10.1833 3.37354,10.3588 3.23698,10.5141 3.13401,10.696 3.07109,10.893 3,11.1156 3,11.3658 3,11.8663 c 0,0.5926 0,0.8888 0.09462,1.1425 0.08361,0.2241 0.2196,0.4249 0.39662,0.5858 0.20034,0.182 0.47271,0.291 1.01742,0.5089 0.55668,0.2226 0.8433,0.8406 0.6537,1.4094 L 4.94721,16.1584 C 4.79819,16.6054 4.72367,16.829 4.7169,17.0486 4.70875,17.3127 4.77049,17.5742 4.89587,17.8067 5.00015,18.0002 5.16678,18.1668 5.5,18.5 c 0.33323,0.3332 0.49985,0.4998 0.69325,0.6041 0.23255,0.1254 0.49408,0.1872 0.75815,0.179 0.21962,-0.0068 0.44316,-0.0813 0.89024,-0.2303 l 0.52698,-0.1757 c 0.63531,-0.2117 1.32558,0.1084 1.57429,0.7302 0.17299,0.4325 0.25949,0.6488 0.39169,0.8176 0.1935,0.247 0.4596,0.4272 0.7608,0.5151 C 11.3012,21 11.5341,21 12,21 c 0.4659,0 0.6988,0 0.9046,-0.06 0.3012,-0.0879 0.5673,-0.2681 0.7608,-0.5151 0.1322,-0.1688 0.2187,-0.3851 0.3917,-0.8176 0.2487,-0.6218 0.939,-0.9419 1.5742,-0.73 l 0.5266,0.1756 c 0.4471,0.149 0.6707,0.2235 0.8903,0.2303 0.2641,0.0081 0.5256,-0.0536 0.7581,-0.179 0.1934,-0.1043 0.3601,-0.2709 0.6933,-0.6041 0.3332,-0.3332 0.4998,-0.4999 0.6041,-0.6933 0.1254,-0.2325 0.1871,-0.4941 0.179,-0.7581 -0.0068,-0.2196 -0.0813,-0.4432 -0.2303,-0.8903 l -0.215,-0.645 c -0.1897,-0.569 0.097,-1.1872 0.6539,-1.4099 0.5447,-0.2179 0.8171,-0.3269 1.0175,-0.5089 0.177,-0.1609 0.313,-0.3617 0.3966,-0.5858 C 21,12.7551 21,12.4589 21,11.8663 21,11.3658 21,11.1156 20.9289,10.893 20.866,10.696 20.763,10.5141 20.6265,10.3588 20.4721,10.1833 20.2597,10.0558 19.8348,9.80087 L 19.5569,9.63416 C 18.9478,9.26867 18.6939,8.51514 18.9578,7.85558 19.1262,7.43443 19.2105,7.22383 19.232,7.01543 19.2636,6.70926 19.2003,6.40077 19.0506,6.13181 18.9487,5.94875 18.7884,5.78837 18.4676,5.46762 18.1658,5.16584 18.0149,5.01494 17.8426,4.91583 17.5894,4.77024 17.2992,4.70174 17.0076,4.71872 16.8091,4.73029 16.6067,4.79777 16.2018,4.93273 L 15.6314,5.12287 C 14.9961,5.33464 14.3058,5.0145 14.0571,4.39272 13.8841,3.96016 13.7976,3.74388 13.6654,3.57511 13.4719,3.32808 13.2058,3.14794 12.9046,3.06005 Z"
                stroke="#000000"
                stroke-width="2"
                stroke-linecap="round"
                stroke-linejoin="round"
                id="path2"
                style="stroke-width:2;stroke-dasharray:none"/>
    </g>
</svg>
