<?xml version="1.0" encoding="UTF-8" standalone="no"?>
<!-- Uploaded to: SVG Repo, www.svgrepo.com, Generator: SVG Repo Mixer Tools -->

<svg
   width="800px"
   height="800px"
   viewBox="0 0 24 24"
   fill="none"
   version="1.1"
   id="svg1"
   sodipodi:docname="share.svg"
   inkscape:version="1.3.2 (091e20ef0f, 2023-11-25, custom)"
   xmlns:inkscape="http://www.inkscape.org/namespaces/inkscape"
   xmlns:sodipodi="http://sodipodi.sourceforge.net/DTD/sodipodi-0.dtd"
   xmlns="http://www.w3.org/2000/svg"
   xmlns:svg="http://www.w3.org/2000/svg">
  <defs
     id="defs1" />
  <sodipodi:namedview
     id="namedview1"
     pagecolor="#ffffff"
     bordercolor="#000000"
     borderopacity="0.25"
     inkscape:showpageshadow="2"
     inkscape:pageopacity="0.0"
     inkscape:pagecheckerboard="0"
     inkscape:deskcolor="#d1d1d1"
     inkscape:zoom="0.83625"
     inkscape:cx="400"
     inkscape:cy="399.40209"
     inkscape:window-width="1920"
     inkscape:window-height="1056"
     inkscape:window-x="1920"
     inkscape:window-y="0"
     inkscape:window-maximized="1"
     inkscape:current-layer="svg1" />
  <path
     d="m 22.801255,1.1987452 -10.8,10.7999998 m 10.8,-10.7999998 v 6.075 m 0,-6.075 h -6.075 m 4.725,11.4749998 v 5.805 c 0,1.512135 0,2.26827 -0.2943,2.8458 -0.258795,0.508005 -0.671895,0.921105 -1.1799,1.1799 -0.57753,0.2943 -1.333665,0.2943 -2.8458,0.2943 H 5.5212548 c -1.512135,0 -2.268216,0 -2.845773,-0.2943 C 2.1674363,22.24565 1.7543903,21.83255 1.4955413,21.324545 1.2012548,20.747015 1.2012548,19.99088 1.2012548,18.478745 V 6.8687452 c 0,-1.512135 0,-2.268216 0.2942865,-2.845773 0.258849,-0.5080455 0.671895,-0.9210915 1.1799405,-1.1799405 0.577557,-0.2942865 1.3336245,-0.2942865 2.845773,-0.2942865 h 5.8050002"
     stroke="#000000"
     stroke-width="2"
     stroke-linecap="round"
     stroke-linejoin="round"
     id="path1"
     style="stroke-width:2.4;stroke-dasharray:none" />
</svg>
