<?xml version="1.0" encoding="UTF-8" standalone="no"?>
<!-- Uploaded to: SVG Repo, www.svgrepo.com, Generator: SVG Repo Mixer Tools -->

<svg
   width="800px"
   height="800px"
   viewBox="0 0 24 24"
   fill="none"
   version="1.1"
   id="svg1"
   sodipodi:docname="play.svg"
   inkscape:version="1.3 (0e150ed6c4, 2023-07-21)"
   xmlns:inkscape="http://www.inkscape.org/namespaces/inkscape"
   xmlns:sodipodi="http://sodipodi.sourceforge.net/DTD/sodipodi-0.dtd"
   xmlns="http://www.w3.org/2000/svg"
   xmlns:svg="http://www.w3.org/2000/svg">
  <defs
     id="defs1" />
  <sodipodi:namedview
     id="namedview1"
     pagecolor="#ffffff"
     bordercolor="#000000"
     borderopacity="0.25"
     inkscape:showpageshadow="2"
     inkscape:pageopacity="0.0"
     inkscape:pagecheckerboard="0"
     inkscape:deskcolor="#d1d1d1"
     inkscape:zoom="0.83625"
     inkscape:cx="400"
     inkscape:cy="399.40209"
     inkscape:window-width="1920"
     inkscape:window-height="1056"
     inkscape:window-x="1920"
     inkscape:window-y="0"
     inkscape:window-maximized="1"
     inkscape:current-layer="svg1" />
  <path
     d="m 17.857517,8.5064846 c 1.853626,1.1584459 2.780311,1.7376564 3.098175,2.4793384 0.277567,0.647572 0.277567,1.380756 0,2.028457 -0.317864,0.741554 -1.244549,1.320763 -3.098175,2.479312 L 9.1517327,20.93474 C 7.0945011,22.220485 6.065879,22.863422 5.2170322,22.795059 4.4771267,22.735581 3.7988757,22.359783 3.3562868,21.763838 2.8485288,21.080217 2.8485288,19.867212 2.8485288,17.441199 V 6.5588646 c 0,-2.4259867 0,-3.6389672 0.507758,-4.3226253 C 3.7988757,1.6403188 4.4771267,1.2644053 5.2170322,1.2049137 6.065879,1.1366805 7.0945011,1.779566 9.1517327,3.0653371 Z"
     stroke="#000000"
     stroke-width="2"
     stroke-linejoin="round"
     id="path1"
     style="stroke-width:2.4;stroke-dasharray:none" />
</svg>
