<?xml version="1.0" encoding="UTF-8" standalone="no"?>
<!-- Uploaded to: SVG Repo, www.svgrepo.com, Generator: SVG Repo Mixer Tools -->

<svg
        xmlns:inkscape="http://www.inkscape.org/namespaces/inkscape"
        xmlns:sodipodi="http://sodipodi.sourceforge.net/DTD/sodipodi-0.dtd"
        width="800px"
        height="800px"
        viewBox="0 0 24 24"
        fill="none"
        version="1.1"
        id="svg1"
        sodipodi:docname="category-now.svg"
        inkscape:version="1.3 (0e150ed6c4, 2023-07-21)"
        xmlns="http://www.w3.org/2000/svg"
>
    <defs
            id="defs1"/>
    <sodipodi:namedview
            id="namedview1"
            pagecolor="#ffffff"
            bordercolor="#000000"
            borderopacity="0.25"
            inkscape:showpageshadow="2"
            inkscape:pageopacity="0.0"
            inkscape:pagecheckerboard="0"
            inkscape:deskcolor="#d1d1d1"
            inkscape:zoom="0.83625"
            inkscape:cx="400"
            inkscape:cy="399.40209"
            inkscape:window-width="1920"
            inkscape:window-height="1056"
            inkscape:window-x="1920"
            inkscape:window-y="0"
            inkscape:window-maximized="1"
            inkscape:current-layer="svg1"/>
    <path
            d="m 8.2000009,20.866661 c 0,1.39916 -1.7013237,2.533334 -3.8000002,2.533334 -2.0986766,0 -3.79999995,-1.134174 -3.79999995,-2.533334 0,-1.39916 1.70132335,-2.533333 3.79999995,-2.533333 2.0986766,0 3.8000002,1.134173 3.8000002,2.533333 z m 0,0 V 3.1333277 L 23.399999,0.59999444 V 18.333328 m 0,0 c 0,1.39916 -1.70126,2.533333 -3.8,2.533333 -2.09874,0 -3.8,-1.134173 -3.8,-2.533333 0,-1.39916 1.70126,-2.533334 3.8,-2.533334 2.09874,0 3.8,1.134174 3.8,2.533334 z M 8.2000009,8.1999945 23.399999,5.6666609"
            stroke="#000000"
            stroke-width="2"
            stroke-linecap="round"
            stroke-linejoin="round"
            id="path1"
            style="stroke-width:1.2;stroke-dasharray:none"/>
</svg>
