<?xml version="1.0" encoding="UTF-8" standalone="no"?>
<!-- Uploaded to: SVG Repo, www.svgrepo.com, Generator: SVG Repo Mixer Tools -->

<svg
        xmlns:inkscape="http://www.inkscape.org/namespaces/inkscape"
        xmlns:sodipodi="http://sodipodi.sourceforge.net/DTD/sodipodi-0.dtd"
        width="800px"
        height="800px"
        viewBox="0 0 24 24"
        fill="none"
        version="1.1"
        id="svg1"
        sodipodi:docname="category-albums.svg"
        inkscape:version="1.3 (0e150ed6c4, 2023-07-21)"
        xmlns="http://www.w3.org/2000/svg"
>
    <defs
            id="defs1"/>
    <sodipodi:namedview
            id="namedview1"
            pagecolor="#ffffff"
            bordercolor="#000000"
            borderopacity="0.25"
            inkscape:showpageshadow="2"
            inkscape:pageopacity="0.0"
            inkscape:pagecheckerboard="0"
            inkscape:deskcolor="#d1d1d1"
            inkscape:zoom="0.83625"
            inkscape:cx="400"
            inkscape:cy="399.40209"
            inkscape:window-width="1920"
            inkscape:window-height="1056"
            inkscape:window-x="1920"
            inkscape:window-y="0"
            inkscape:window-maximized="1"
            inkscape:current-layer="svg1"/>
    <path
            d="M 15.226057,17.610944 12.849015,15.253851 C 11.702033,14.116274 11.128469,13.547556 10.470405,13.339649 9.8915701,13.156822 9.2694156,13.16352 8.6946843,13.358879 8.0411794,13.581036 7.4800995,14.162009 6.3579695,15.323954 L 0.66282913,20.949143 M 15.226057,17.610938 15.712552,17.128576 c 1.148407,-1.13886 1.722541,-1.70829 2.38146,-1.916198 0.579405,-0.182827 1.201987,-0.17556 1.777117,0.02052 0.65379,0.22287 1.214813,0.80541 2.336715,1.970348 l 1.192155,1.19985 m -8.173942,-0.792158 5.715817,5.727075 m 0,0 c -0.509295,0.06198 -1.169497,0.06198 -2.101875,0.06198 H 5.1600007 c -1.5961567,0 -2.394228,0 -3.0038715,-0.310651 C 1.619859,22.816184 1.183866,22.380134 0.91063663,21.843906 0.78234393,21.592109 0.70704693,21.308249 0.66282913,20.949149 m 20.27904487,2.38887 c 0.362378,-0.04403 0.648518,-0.119415 0.902025,-0.248663 0.536229,-0.273172 0.972278,-0.709222 1.245451,-1.24545 0.310649,-0.609615 0.310649,-1.407757 0.310649,-3.0039 V 18.403101 M 0.66282913,20.949149 C 0.60000033,20.439 0.60000033,19.776944 0.60000033,18.840006 V 5.1600071 c 0,-1.5961426 0,-2.3942281 0.3106358,-3.0038715 C 1.183866,1.6198654 1.619859,1.1838724 2.1561292,0.91064296 2.7657727,0.60000716 3.563844,0.60000716 5.1600007,0.60000716 H 18.839999 c 1.596143,0 2.394285,0 3.0039,0.3106358 0.536229,0.27322944 0.972278,0.70922244 1.245451,1.24549264 0.310649,0.6096434 0.310649,1.4077289 0.310649,3.0038715 V 18.403101 m -4.275,-10.6782507 c 0,1.5740687 -1.275944,2.8500137 -2.849999,2.8500137 -1.574056,0 -2.850001,-1.275945 -2.850001,-2.8500137 0,-1.5740124 1.275945,-2.8500001 2.850001,-2.8500001 1.574055,0 2.849999,1.2759877 2.849999,2.8500001 z"
            stroke="#000000"
            stroke-width="2.66598"
            stroke-linecap="round"
            stroke-linejoin="round"
            id="path1"
            style="stroke-width:1.2;stroke-dasharray:none"/>
</svg>
