<?xml version="1.0" encoding="UTF-8" standalone="no"?>
<!-- Uploaded to: SVG Repo, www.svgrepo.com, Generator: SVG Repo Mixer Tools -->

<svg
   width="800px"
   height="800px"
   viewBox="0 0 24 24"
   fill="none"
   version="1.1"
   id="svg1"
   sodipodi:docname="category-directories.svg"
   inkscape:version="1.3 (0e150ed6c4, 2023-07-21)"
   xmlns:inkscape="http://www.inkscape.org/namespaces/inkscape"
   xmlns:sodipodi="http://sodipodi.sourceforge.net/DTD/sodipodi-0.dtd"
   xmlns="http://www.w3.org/2000/svg"
   xmlns:svg="http://www.w3.org/2000/svg">
  <defs
     id="defs1" />
  <sodipodi:namedview
     id="namedview1"
     pagecolor="#ffffff"
     bordercolor="#000000"
     borderopacity="0.25"
     inkscape:showpageshadow="2"
     inkscape:pageopacity="0.0"
     inkscape:pagecheckerboard="0"
     inkscape:deskcolor="#d1d1d1"
     inkscape:zoom="0.83625"
     inkscape:cx="400"
     inkscape:cy="399.40209"
     inkscape:window-width="1920"
     inkscape:window-height="1056"
     inkscape:window-x="1920"
     inkscape:window-y="0"
     inkscape:window-maximized="1"
     inkscape:current-layer="svg1" />
  <path
     d="m 0.60000075,7.1866664 c 0,-1.4188059 0,-2.1282026 0.2761207,-2.6701078 C 1.118992,4.0398739 1.5065413,3.6523246 1.983226,3.409454 2.5251312,3.1333333 3.2345406,3.1333333 4.6533339,3.1333333 H 9.054392 c 0.6196282,0 0.9294552,0 1.221041,0.069996 0.2584,0.062054 0.505527,0.1644133 0.73226,0.3033159 0.255614,0.1566615 0.474746,0.3757314 0.912887,0.813884 l 0.158839,0.1589414 c 0.43814,0.4381527 0.657274,0.6572226 0.912887,0.813884 0.226733,0.1389026 0.473861,0.2412619 0.732261,0.3033159 0.291586,0.069996 0.601413,0.069996 1.221066,0.069996 h 4.401033 c 1.418793,0 2.128252,0 2.670133,0.2761207 0.476647,0.2428707 0.864246,0.63042 1.107067,1.1071047 0.276133,0.5419052 0.276133,1.2513147 0.276133,2.6701081 v 7.093332 c 0,1.418793 0,2.128254 -0.276133,2.670134 -0.242821,0.476645 -0.63042,0.864246 -1.107067,1.107066 -0.541881,0.276134 -1.25134,0.276134 -2.670133,0.276134 H 4.6533339 c -1.4188059,0 -2.1282027,0 -2.6701079,-0.276134 -0.4766847,-0.242819 -0.864234,-0.63042 -1.10710455,-1.107065 -0.2761207,-0.54188 -0.2761207,-1.251341 -0.2761207,-2.670134 z"
     stroke="#000000"
     stroke-width="2.39944"
     stroke-linecap="round"
     stroke-linejoin="round"
     id="path1"
     style="stroke-width:1.2;stroke-dasharray:none" />
</svg>
