<?xml version="1.0" encoding="UTF-8" standalone="no"?>
<!-- Uploaded to: SVG Repo, www.svgrepo.com, Generator: SVG Repo Mixer Tools -->

<svg
        xmlns:inkscape="http://www.inkscape.org/namespaces/inkscape"
        xmlns:sodipodi="http://sodipodi.sourceforge.net/DTD/sodipodi-0.dtd"
        width="800px"
        height="800px"
        viewBox="0 0 24 24"
        fill="none"
        version="1.1"
        id="svg1"
        sodipodi:docname="copy.svg"
        inkscape:version="1.3.2 (091e20ef0f, 2023-11-25, custom)"
        xmlns="http://www.w3.org/2000/svg"
>
    <defs
            id="defs1"/>
    <sodipodi:namedview
            id="namedview1"
            pagecolor="#ffffff"
            bordercolor="#000000"
            borderopacity="0.25"
            inkscape:showpageshadow="2"
            inkscape:pageopacity="0.0"
            inkscape:pagecheckerboard="0"
            inkscape:deskcolor="#d1d1d1"
            inkscape:zoom="0.83625"
            inkscape:cx="400"
            inkscape:cy="399.40209"
            inkscape:window-width="1920"
            inkscape:window-height="1056"
            inkscape:window-x="1920"
            inkscape:window-y="0"
            inkscape:window-maximized="1"
            inkscape:current-layer="svg1"/>
    <path
            d="M 7.0666665,3.3659579 C 5.8477015,3.3669076 5.2087608,3.3823983 4.7134912,3.6347506 4.2493508,3.8712299 3.8720002,4.2485806 3.6355208,4.7127209 3.3666665,5.2403656 3.3666665,5.9310939 3.3666665,7.3125629 V 19.152563 c 0,1.381457 0,2.072247 0.2688543,2.599867 0.2364794,0.464103 0.61383,0.841503 1.0779704,1.077933 0.5276446,0.268867 1.218373,0.268867 2.599842,0.268867 h 9.3733328 c 1.381457,0 2.072247,0 2.599867,-0.268867 0.464103,-0.23643 0.841503,-0.61383 1.077933,-1.077933 0.268867,-0.52762 0.268867,-1.21841 0.268867,-2.599867 V 7.3125629 c 0,-1.381469 0,-2.0721973 -0.268867,-2.599842 -0.23643,-0.4641403 -0.61383,-0.841491 -1.077933,-1.0779703 -0.495307,-0.2523523 -1.134174,-0.267843 -2.3532,-0.2687927 m -9.8666665,0 v 2.466605 h 9.8666665 v -2.466605 m -9.8666665,0 V 3.0046653 c 0,-0.558404 0.2218273,-1.0939297 0.6166667,-1.488769 C 8.0781725,1.1210569 8.6136985,0.89922962 9.1721025,0.89922962 h 5.6558065 c 0.55833,0 1.093967,0.22182728 1.488757,0.61666668 0.39479,0.3948393 0.616667,0.930365 0.616667,1.488769 v 0.3612926"
            stroke="#000000"
            stroke-width="2"
            stroke-linecap="round"
            stroke-linejoin="round"
            id="path1"
            style="stroke-width:1.8;stroke-dasharray:none"/>
</svg>
