<?xml version="1.0" encoding="UTF-8" standalone="no"?>
<!-- Uploaded to: SVG Repo, www.svgrepo.com, Generator: SVG Repo Mixer Tools -->

<svg
   width="800px"
   height="800px"
   viewBox="0 0 24 24"
   fill="none"
   version="1.1"
   id="svg1"
   sodipodi:docname="remove.svg"
   inkscape:version="1.3.2 (091e20ef0f, 2023-11-25, custom)"
   xmlns:inkscape="http://www.inkscape.org/namespaces/inkscape"
   xmlns:sodipodi="http://sodipodi.sourceforge.net/DTD/sodipodi-0.dtd"
   xmlns="http://www.w3.org/2000/svg"
   xmlns:svg="http://www.w3.org/2000/svg">
  <defs
     id="defs1" />
  <sodipodi:namedview
     id="namedview1"
     pagecolor="#ffffff"
     bordercolor="#000000"
     borderopacity="0.25"
     inkscape:showpageshadow="2"
     inkscape:pageopacity="0.0"
     inkscape:pagecheckerboard="0"
     inkscape:deskcolor="#d1d1d1"
     inkscape:zoom="0.83625"
     inkscape:cx="400"
     inkscape:cy="399.40209"
     inkscape:window-width="1920"
     inkscape:window-height="1056"
     inkscape:window-x="1920"
     inkscape:window-y="0"
     inkscape:window-maximized="1"
     inkscape:current-layer="svg1" />
  <path
     d="M 2.1333335,4.5998622 H 21.866666 m -4.933333,0 -0.33374,-1.0013803 C 16.276091,2.6280705 16.114276,2.1428649 15.81433,1.7841375 15.54941,1.4673559 15.209256,1.2221569 14.82495,1.0710242 14.389706,0.89986222 13.878366,0.89986222 12.85544,0.89986222 h -1.71088 c -1.022926,0 -1.5342665,0 -1.9694975,0.17116198 C 8.7907681,1.2221569 8.4505655,1.4673559 8.1856578,1.7841375 7.8856618,2.1428649 7.7239348,2.6280705 7.4004561,3.5984819 L 7.0666668,4.5998622 m 12.3333332,0 V 17.179862 c 0,2.072247 0,3.108247 -0.4033,3.8998 -0.354707,0.696217 -0.920684,1.262193 -1.6169,1.6169 -0.791554,0.4033 -1.827554,0.4033 -3.8998,0.4033 h -2.96 c -2.0721972,0 -3.1082959,0 -3.8997629,-0.4033 C 5.9240328,22.341855 5.3580068,21.775879 5.0032755,21.079662 4.6000002,20.288109 4.6000002,19.252109 4.6000002,17.179862 V 4.5998622 M 14.466666,9.5331955 V 18.166529 M 9.5333335,9.5331955 v 8.6333335"
     stroke="#000000"
     stroke-width="2"
     stroke-linecap="round"
     stroke-linejoin="round"
     id="path1"
     style="stroke-width:1.8;stroke-dasharray:none" />
</svg>
