<?xml version="1.0" encoding="UTF-8" standalone="no"?>
<!-- Uploaded to: SVG Repo, www.svgrepo.com, Generator: SVG Repo Mixer Tools -->

<svg
        xmlns:inkscape="http://www.inkscape.org/namespaces/inkscape"
        xmlns:sodipodi="http://sodipodi.sourceforge.net/DTD/sodipodi-0.dtd"
        width="800px"
        height="800px"
        viewBox="0 0 24 24"
        fill="none"
        version="1.1"
        id="svg1"
        sodipodi:docname="floppy-disk-alt-svgrepo-com.svg"
        inkscape:version="1.3.2 (091e20ef0f, 2023-11-25, custom)"
        xmlns="http://www.w3.org/2000/svg"
>
    <defs
            id="defs1"/>
    <sodipodi:namedview
            id="namedview1"
            pagecolor="#ffffff"
            bordercolor="#000000"
            borderopacity="0.25"
            inkscape:showpageshadow="2"
            inkscape:pageopacity="0.0"
            inkscape:pagecheckerboard="0"
            inkscape:deskcolor="#d1d1d1"
            inkscape:zoom="0.83625"
            inkscape:cx="399.40209"
            inkscape:cy="400.59791"
            inkscape:window-width="1920"
            inkscape:window-height="1056"
            inkscape:window-x="1920"
            inkscape:window-y="0"
            inkscape:window-maximized="1"
            inkscape:current-layer="svg1"/>
    <path
            d="M 8.3000009,0.89999924 V 3.8599993 c 0,0.6907284 0,1.0360987 0.134421,1.299921 0.118252,0.232064 0.3069267,0.4207394 0.5389907,0.5389914 0.2638226,0.134421 0.609131,0.134421 1.2999204,0.134421 h 2.22 c 0.69079,0 1.036124,0 1.299934,-0.134421 0.232114,-0.118252 0.42069,-0.3069274 0.538966,-0.5389914 0.134434,-0.2638223 0.134434,-0.6091926 0.134434,-1.299921 V 0.90493261 M 20.633333,8.451083 v 10.70225 c 0,1.381456 0,2.072246 -0.268866,2.599866 -0.23643,0.464104 -0.61383,0.841504 -1.077934,1.077934 -0.52762,0.268866 -1.21841,0.268866 -2.599866,0.268866 H 7.3133339 c -1.381469,0 -2.0721973,0 -2.5998421,-0.268866 -0.4641402,-0.23643 -0.841491,-0.61383 -1.0779702,-1.077934 -0.2688544,-0.52762 -0.2688544,-1.21841 -0.2688544,-2.599866 V 4.846666 c 0,-1.381469 0,-2.0721973 0.2688544,-2.5998421 C 3.8720008,1.7826837 4.2493516,1.4053329 4.7134918,1.1688536 5.2411366,0.89999924 5.9318649,0.89999924 7.3133339,0.89999924 h 6.4897991 c 0.696588,0 1.04488,0 1.36641,0.0885907 0.2849,0.078477 0.553398,0.20750826 0.792664,0.38093966 0.269976,0.195767 0.48766,0.4677294 0.92278,1.0116786 l 2.883534,3.6044168 c 0.320542,0.4006606 0.480752,0.6010033 0.594712,0.8240886 0.101134,0.197913 0.17501,0.408591 0.21978,0.6263114 0.05032,0.2453963 0.05032,0.501942 0.05032,1.015058 z m -6.166666,7.865582 c 0,1.702864 -1.38047,3.083334 -3.083334,3.083334 -1.7028621,0 -3.0833321,-1.38047 -3.0833321,-3.083334 0,-1.702862 1.38047,-3.083332 3.0833321,-3.083332 1.702864,0 3.083334,1.38047 3.083334,3.083332 z"
            stroke="#000000"
            stroke-width="2"
            stroke-linecap="round"
            stroke-linejoin="round"
            id="path1"
            style="stroke-width:1.8;stroke-dasharray:none"/>
</svg>
